<svg id="svg" xmlns="http://www.w3.org/2000/svg" xmlns:xlink="http://www.w3.org/1999/xlink" width="400" height="300" viewBox="0, 0, 400,300" version="1.1"><g id="svgg"><path id="path0" d="M259.081 56.493 C 257.028 56.678,253.440 57.651,250.697 58.767 C 249.443 59.277,248.058 59.832,247.620 60.001 C 246.485 60.439,244.870 61.348,242.708 62.768 C 241.677 63.446,240.796 64.000,240.752 64.000 C 240.707 64.000,240.538 64.108,240.377 64.240 C 240.215 64.373,239.446 64.986,238.667 65.603 C 236.570 67.265,234.173 69.739,231.663 72.833 C 230.436 74.346,229.110 75.914,228.716 76.319 C 228.322 76.724,228.000 77.123,228.000 77.205 C 228.000 77.371,226.943 78.706,225.607 80.227 C 225.136 80.764,224.436 81.658,224.053 82.214 C 223.670 82.769,223.066 83.530,222.711 83.904 C 221.874 84.786,220.000 87.106,220.000 87.260 C 220.000 87.326,219.717 87.688,219.372 88.065 C 219.027 88.442,217.500 90.325,215.979 92.250 C 214.458 94.175,212.941 96.046,212.607 96.408 C 212.273 96.769,212.000 97.127,212.000 97.202 C 212.000 97.346,210.093 99.794,209.757 100.082 C 209.413 100.377,208.167 101.957,208.161 102.106 C 208.158 102.185,207.802 102.677,207.370 103.199 C 206.122 104.704,204.099 107.242,203.917 107.531 C 203.825 107.676,203.331 108.309,202.820 108.939 C 201.300 110.808,197.667 115.678,197.667 115.845 C 197.667 115.940,204.724 116.000,215.714 116.000 L 233.761 116.000 234.880 114.425 C 235.496 113.559,236.000 112.785,236.000 112.706 C 236.000 112.627,236.134 112.417,236.298 112.240 C 236.462 112.062,237.230 111.054,238.004 110.000 C 238.777 108.946,239.470 108.058,239.542 108.027 C 239.614 107.995,239.796 107.733,239.945 107.443 C 240.251 106.851,241.943 104.570,242.768 103.638 C 243.066 103.301,243.661 102.492,244.091 101.839 C 244.521 101.187,245.072 100.450,245.317 100.202 C 245.562 99.953,246.201 99.204,246.737 98.537 C 247.274 97.869,247.742 97.354,247.779 97.391 C 247.816 97.427,247.585 99.061,247.265 101.021 C 246.462 105.935,245.364 113.709,245.302 114.917 L 245.250 115.917 261.772 115.959 L 278.294 116.002 278.411 114.876 C 278.476 114.257,278.741 111.987,279.001 109.833 C 279.261 107.679,279.598 104.679,279.748 103.167 C 280.374 96.879,280.517 95.563,280.998 91.667 C 281.276 89.421,281.801 85.033,282.166 81.917 C 282.530 78.800,282.979 75.050,283.162 73.583 C 284.555 62.450,281.812 58.337,271.917 56.723 C 270.165 56.438,261.441 56.281,259.081 56.493 M153.000 123.944 C 150.898 124.624,149.281 128.497,149.994 131.144 C 151.441 136.519,162.175 134.700,162.156 129.083 C 162.143 125.337,157.226 122.577,153.000 123.944 M307.667 123.832 C 307.438 123.908,307.054 124.014,306.814 124.066 C 305.195 124.421,304.083 126.600,304.083 129.421 L 304.083 131.592 304.629 132.334 C 306.754 135.226,311.871 135.112,315.028 132.102 C 317.242 129.989,316.279 126.026,313.157 124.412 C 311.858 123.740,308.885 123.426,307.667 123.832 M87.500 124.382 C 84.769 125.231,80.854 128.205,80.138 129.974 C 80.077 130.126,79.665 130.677,79.222 131.200 C 77.133 133.663,76.352 134.637,75.951 135.275 C 75.712 135.655,75.456 135.993,75.381 136.025 C 75.222 136.093,72.891 139.050,70.745 141.906 C 69.923 142.999,69.074 144.087,68.858 144.322 C 68.642 144.558,68.331 145.012,68.167 145.333 C 67.883 145.889,66.403 147.991,66.172 148.167 C 65.959 148.329,64.076 151.090,63.890 151.511 C 63.759 151.808,63.183 152.212,61.997 152.835 C 61.060 153.328,60.208 153.810,60.104 153.907 C 60.000 154.004,59.502 154.364,58.999 154.706 C 56.633 156.316,56.352 156.896,56.917 159.000 C 57.149 159.866,57.145 159.940,56.833 160.333 C 56.651 160.563,56.378 160.975,56.227 161.250 C 56.075 161.525,55.407 162.462,54.741 163.333 C 53.677 164.726,52.000 167.339,52.000 167.605 C 52.000 167.658,51.625 168.450,51.167 169.366 C 50.020 171.657,50.060 171.856,51.986 173.389 C 53.313 174.445,56.681 174.599,58.212 173.674 C 59.926 172.637,63.118 169.061,64.280 166.877 C 64.492 166.477,65.067 165.535,65.557 164.783 C 67.391 161.970,67.965 161.038,68.071 160.706 C 68.277 160.055,70.075 159.598,79.583 157.777 C 84.187 156.895,83.876 156.932,83.777 157.281 C 83.159 159.462,83.041 170.853,83.625 171.963 C 83.831 172.356,84.000 172.779,84.000 172.905 C 84.000 173.762,86.302 174.731,88.333 174.730 C 90.323 174.728,91.279 174.143,92.513 172.171 L 93.083 171.258 93.076 169.004 C 93.072 167.764,93.005 164.275,92.927 161.250 C 92.728 153.487,92.937 150.187,94.517 136.083 C 95.535 126.991,95.546 126.079,94.639 125.248 C 93.381 124.095,89.816 123.663,87.500 124.382 M85.559 135.873 C 85.489 135.986,85.453 136.323,85.479 136.623 C 85.504 136.922,85.455 137.167,85.369 137.167 C 85.283 137.167,85.248 137.353,85.292 137.581 C 85.336 137.808,85.315 138.127,85.246 138.289 C 85.177 138.451,85.136 138.820,85.155 139.108 C 85.174 139.397,85.118 139.677,85.031 139.731 C 84.945 139.784,84.912 140.167,84.959 140.581 C 85.005 140.995,84.974 141.333,84.888 141.333 C 84.803 141.333,84.764 141.595,84.802 141.916 C 84.839 142.236,84.815 142.630,84.747 142.791 C 84.680 142.952,84.640 143.440,84.658 143.875 C 84.676 144.310,84.630 144.667,84.554 144.666 C 84.478 144.666,84.442 145.116,84.473 145.666 C 84.504 146.217,84.463 146.667,84.382 146.667 C 84.301 146.667,84.265 147.153,84.303 147.746 C 84.341 148.340,84.314 148.959,84.243 149.121 C 84.172 149.284,84.128 149.507,84.146 149.616 C 84.175 149.802,83.272 150.072,82.911 149.985 C 82.822 149.964,82.637 149.992,82.500 150.048 C 82.264 150.142,80.206 150.455,79.667 150.478 C 79.529 150.483,78.817 150.592,78.083 150.720 C 77.350 150.848,76.637 150.961,76.500 150.972 C 76.362 150.983,75.894 151.029,75.458 151.074 C 74.442 151.181,74.429 151.231,76.029 148.811 C 79.425 143.674,85.205 135.667,85.517 135.667 C 85.610 135.667,85.629 135.759,85.559 135.873 M109.427 137.344 C 106.019 137.739,105.216 138.691,106.816 140.438 C 108.190 141.937,108.292 140.867,105.901 150.066 C 104.856 154.090,104.000 157.540,104.000 157.733 C 103.999 157.926,103.287 160.917,102.416 164.381 C 100.624 171.512,100.589 171.789,101.383 172.583 C 102.134 173.334,102.876 173.499,105.500 173.495 C 108.607 173.492,109.563 173.020,110.006 171.270 C 112.065 163.144,114.095 158.239,117.285 153.674 C 118.714 151.628,121.696 148.458,122.630 147.990 C 122.879 147.866,123.432 147.516,123.858 147.213 C 125.594 145.980,127.964 145.299,128.294 145.937 C 128.489 146.312,127.918 149.247,127.274 151.183 C 125.999 155.019,124.242 161.702,123.993 163.667 C 123.917 164.262,123.693 165.950,123.494 167.417 C 122.875 171.993,123.206 174.783,124.484 175.755 C 124.872 176.049,125.169 176.081,127.352 176.065 C 130.727 176.039,131.766 175.531,133.440 173.091 L 133.797 172.571 133.241 170.638 L 132.686 168.704 132.926 167.060 C 133.598 162.469,134.488 157.991,135.474 154.250 C 135.739 153.242,136.011 152.117,136.077 151.750 C 136.143 151.383,136.644 149.758,137.190 148.138 C 139.583 141.040,137.989 138.435,131.250 138.427 L 128.917 138.425 126.917 139.225 C 124.100 140.351,120.651 142.208,120.083 142.903 C 119.992 143.016,119.340 143.533,118.636 144.052 C 117.931 144.572,117.308 145.073,117.251 145.164 C 116.836 145.836,116.521 145.650,116.763 144.877 C 117.703 141.866,117.667 141.118,116.491 139.256 C 115.632 137.895,114.937 137.532,112.797 137.325 C 111.066 137.158,111.036 137.158,109.427 137.344 M151.583 137.281 C 149.333 137.477,147.497 138.238,147.502 138.973 C 147.503 139.272,148.279 140.642,148.854 141.359 L 149.209 141.802 148.613 144.276 C 148.075 146.513,147.540 148.685,144.844 159.583 C 141.409 173.469,141.401 173.417,147.000 173.417 C 151.166 173.417,151.499 173.198,151.501 170.464 C 151.502 169.704,151.580 168.603,151.676 168.015 C 151.771 167.428,151.913 166.442,151.990 165.824 C 152.068 165.206,152.994 161.336,154.050 157.225 C 155.105 153.114,156.047 149.337,156.144 148.833 C 156.241 148.329,156.596 146.792,156.932 145.417 C 158.509 138.975,157.080 136.802,151.583 137.281 M169.333 137.319 C 165.714 137.737,164.988 138.604,166.581 140.603 C 167.084 141.234,167.462 141.862,167.422 142.000 C 166.916 143.712,164.000 155.204,164.000 155.487 C 164.000 155.696,163.475 157.911,162.832 160.409 C 159.524 173.276,159.568 173.500,165.417 173.500 C 169.341 173.500,169.954 173.081,170.406 170.083 C 170.545 169.167,170.888 167.442,171.169 166.250 C 171.450 165.058,171.759 163.671,171.856 163.167 C 172.181 161.474,173.348 156.936,174.020 154.750 C 174.680 152.606,174.698 152.574,175.685 151.652 C 176.770 150.638,180.662 148.212,181.539 148.003 C 181.838 147.932,182.729 147.568,183.519 147.195 C 186.248 145.907,186.128 145.629,184.917 150.439 C 184.412 152.441,184.001 154.230,184.003 154.414 C 184.005 154.599,183.113 158.237,182.021 162.500 C 179.054 174.083,179.092 173.853,180.022 174.516 C 180.790 175.062,182.178 175.328,184.283 175.331 C 188.361 175.336,188.683 175.055,189.769 170.529 C 190.091 169.184,190.725 166.562,191.177 164.702 C 191.630 162.842,192.000 161.147,192.000 160.934 C 192.000 160.432,194.225 151.916,194.578 151.068 C 195.033 149.976,197.322 148.000,198.132 148.000 C 198.228 148.000,199.006 147.671,199.861 147.269 C 201.655 146.425,203.760 145.695,204.815 145.549 L 205.546 145.448 205.468 146.766 C 205.388 148.106,204.805 150.387,203.170 155.750 C 200.826 163.441,200.133 166.963,200.101 171.333 C 200.069 175.782,201.501 176.810,206.537 175.949 C 207.955 175.707,211.144 172.970,210.750 172.334 C 209.464 170.253,209.605 166.408,211.192 160.250 C 211.570 158.783,211.935 157.246,212.003 156.833 C 212.071 156.421,212.391 155.221,212.715 154.167 C 216.162 142.954,216.261 142.189,214.477 140.548 C 212.636 138.856,207.150 138.067,204.583 139.125 C 204.125 139.314,203.338 139.629,202.833 139.826 C 200.977 140.550,199.049 141.710,196.823 143.444 C 195.626 144.377,195.595 144.369,195.352 143.052 C 194.764 139.858,193.395 138.829,189.571 138.702 C 187.238 138.625,187.116 138.651,183.750 139.954 C 182.950 140.264,180.339 141.761,180.167 142.009 C 180.048 142.179,177.351 144.167,177.238 144.167 C 177.187 144.167,176.887 144.363,176.572 144.603 C 176.257 144.843,176.000 144.981,176.000 144.908 C 176.000 144.836,176.083 144.300,176.185 143.716 C 176.669 140.936,175.476 137.984,173.674 137.503 C 172.802 137.271,170.571 137.176,169.333 137.319 M263.871 137.345 C 260.375 137.683,259.262 138.615,260.587 140.095 C 260.909 140.455,261.363 141.022,261.595 141.354 L 262.016 141.958 261.028 145.937 C 260.484 148.126,259.967 150.292,259.878 150.750 C 259.789 151.208,258.943 154.583,257.998 158.250 C 257.053 161.917,256.208 165.292,256.121 165.750 C 256.034 166.208,255.777 167.406,255.549 168.411 C 254.492 173.080,255.059 173.664,260.466 173.471 C 263.311 173.370,263.647 173.106,264.252 170.500 C 264.576 169.109,265.912 164.603,266.156 164.083 C 266.333 163.706,267.554 160.652,268.002 159.469 C 269.150 156.432,275.555 148.000,276.713 148.000 C 276.792 148.000,277.170 147.786,277.553 147.524 C 280.057 145.811,282.022 145.273,282.501 146.168 C 282.704 146.548,282.675 146.666,281.191 151.511 C 280.642 153.305,280.109 155.233,280.007 155.795 C 279.905 156.358,279.605 157.590,279.341 158.534 C 277.440 165.333,276.649 172.627,277.618 174.437 C 278.977 176.978,284.018 176.842,286.666 174.194 C 287.939 172.921,287.973 172.740,287.359 170.538 L 286.852 168.724 287.351 165.570 C 287.626 163.836,287.914 161.854,287.991 161.167 C 288.245 158.908,289.610 153.536,290.985 149.378 C 292.702 144.189,292.837 142.141,291.572 140.467 C 289.798 138.119,283.964 137.677,280.111 139.598 C 279.668 139.819,279.188 140.000,279.044 140.000 C 278.742 140.000,276.611 141.153,276.528 141.361 C 276.497 141.438,276.398 141.500,276.308 141.500 C 276.218 141.500,275.418 142.044,274.531 142.708 C 273.643 143.373,272.862 143.941,272.796 143.971 C 272.729 144.001,272.298 144.394,271.837 144.846 C 270.791 145.869,270.634 145.875,270.948 144.875 C 271.973 141.611,271.875 140.708,270.305 138.924 C 269.434 137.934,268.621 137.528,267.122 137.334 C 265.780 137.159,265.798 137.159,263.871 137.345 M305.167 137.319 C 301.558 137.833,300.946 138.591,302.521 140.594 C 303.517 141.862,303.531 141.441,302.344 145.973 C 301.800 148.050,301.080 150.800,300.745 152.083 C 300.410 153.367,300.078 154.792,300.008 155.250 C 299.938 155.708,299.315 158.296,298.625 161.000 C 295.477 173.327,295.478 173.330,300.917 173.464 C 305.089 173.567,305.335 173.363,305.632 169.563 C 305.841 166.898,306.073 165.692,307.246 161.182 C 307.661 159.586,308.000 158.139,308.000 157.965 C 308.000 157.791,308.591 155.384,309.313 152.616 C 310.035 149.848,310.856 146.608,311.138 145.417 C 312.701 138.793,311.001 136.488,305.167 137.319 M237.333 138.326 C 234.100 138.660,229.866 140.242,227.917 141.844 C 225.224 144.057,224.484 144.772,223.057 146.541 C 221.510 148.460,220.004 150.827,220.001 151.344 C 220.001 151.487,219.846 151.922,219.658 152.311 C 217.856 156.042,217.494 164.061,218.986 167.204 C 219.988 169.317,221.453 171.024,222.840 171.696 C 228.346 174.366,233.993 173.560,238.429 169.471 L 239.138 168.818 239.194 170.733 L 239.250 172.649 239.821 173.238 C 241.555 175.025,247.312 174.514,247.217 172.582 C 247.066 169.491,247.093 169.065,247.544 167.295 C 247.795 166.312,248.000 165.331,248.000 165.116 C 248.000 164.902,248.552 162.594,249.227 159.988 C 252.965 145.547,252.919 146.112,250.471 144.615 C 250.226 144.465,249.541 143.740,248.949 143.003 C 246.087 139.442,242.094 137.835,237.333 138.326 M335.250 138.280 C 330.937 138.647,326.406 140.558,323.500 143.233 C 321.875 144.730,320.000 146.691,320.000 146.893 C 320.000 147.002,319.787 147.352,319.527 147.670 C 316.219 151.729,314.552 159.361,315.716 165.127 C 317.383 173.390,327.433 175.979,335.083 170.118 C 335.450 169.837,335.872 169.458,336.021 169.276 C 336.276 168.965,336.297 169.043,336.364 170.598 C 336.456 172.727,336.698 173.213,337.950 173.787 C 339.630 174.556,343.015 174.477,344.073 173.645 C 344.566 173.257,344.595 172.923,344.305 170.921 L 344.111 169.574 345.568 163.995 C 346.370 160.927,347.249 157.479,347.520 156.333 C 347.792 155.188,348.429 152.541,348.936 150.452 L 349.857 146.655 349.549 146.127 C 349.379 145.837,348.860 145.333,348.395 145.008 C 347.461 144.354,347.283 144.184,346.647 143.333 C 346.272 142.831,345.779 142.330,344.143 140.792 C 343.973 140.631,343.765 140.500,343.681 140.500 C 343.597 140.500,343.503 140.440,343.472 140.367 C 343.418 140.236,341.832 139.440,340.426 138.837 C 339.184 138.305,337.316 138.103,335.250 138.280 M240.883 145.555 C 242.424 146.458,243.455 148.177,243.163 149.355 C 243.064 149.756,242.963 150.196,242.940 150.333 C 242.916 150.471,242.836 150.941,242.762 151.377 C 242.689 151.814,242.561 152.213,242.478 152.264 C 242.395 152.315,242.364 152.415,242.409 152.487 C 242.592 152.784,240.730 159.500,240.464 159.500 C 240.381 159.500,240.360 159.575,240.417 159.667 C 241.181 160.904,234.674 166.458,232.143 166.727 C 231.919 166.751,231.664 166.813,231.576 166.865 C 231.007 167.203,228.693 167.000,228.178 166.568 C 227.554 166.043,226.835 164.699,226.766 163.929 C 226.739 163.629,226.667 163.302,226.605 163.202 C 226.470 162.984,226.455 162.699,226.434 159.952 C 226.424 158.701,226.486 157.772,226.583 157.702 C 226.675 157.637,226.766 157.365,226.785 157.097 C 226.805 156.830,226.880 156.567,226.952 156.514 C 227.024 156.460,227.103 156.229,227.127 156.000 C 227.189 155.407,228.548 152.640,229.428 151.316 C 232.538 146.638,238.024 143.879,240.883 145.555 M337.590 145.242 C 338.760 145.731,340.514 147.574,340.236 148.022 C 340.187 148.102,340.221 148.167,340.312 148.167 C 340.717 148.167,340.663 149.011,340.109 151.306 C 339.785 152.650,339.317 154.612,339.069 155.667 C 337.869 160.763,336.600 162.724,333.013 165.025 C 327.640 168.471,324.030 167.421,323.929 162.381 C 323.914 161.628,323.848 160.960,323.784 160.895 C 323.610 160.721,323.642 160.035,323.829 159.919 C 323.920 159.863,323.948 159.502,323.894 159.104 C 323.075 153.129,332.832 143.254,337.590 145.242 M143.458 183.958 C 142.381 183.987,141.500 184.047,141.500 184.090 C 141.500 184.134,141.754 185.013,142.065 186.044 C 143.043 189.290,143.065 189.063,141.591 190.835 C 140.111 192.613,140.326 192.349,138.810 194.250 C 138.152 195.075,137.321 196.088,136.963 196.500 C 136.130 197.460,136.000 197.630,136.000 197.756 C 136.000 197.868,134.628 199.681,134.277 200.032 C 134.050 200.260,132.324 202.617,131.750 203.484 C 131.567 203.760,130.667 205.059,129.751 206.368 C 128.834 207.678,127.947 209.006,127.778 209.318 C 127.609 209.631,126.948 210.681,126.310 211.651 C 125.638 212.672,123.881 215.984,122.146 219.500 C 120.495 222.846,118.506 226.841,117.726 228.377 L 116.308 231.171 116.662 232.237 C 117.450 234.604,119.187 236.286,123.814 239.164 C 129.024 242.403,140.291 243.073,144.533 240.396 C 144.878 240.178,145.241 240.000,145.339 240.000 C 145.554 240.000,147.411 238.756,147.847 238.320 C 148.563 237.603,150.664 235.833,150.798 235.833 C 150.878 235.833,151.453 235.267,152.075 234.575 C 152.696 233.883,153.725 232.897,154.360 232.383 C 154.996 231.870,155.606 231.281,155.716 231.074 C 155.826 230.868,156.835 229.743,157.958 228.576 C 159.081 227.409,160.000 226.386,160.000 226.303 C 160.000 226.168,161.553 224.207,161.823 224.000 C 162.078 223.805,163.515 221.822,164.006 220.988 C 164.299 220.491,164.596 220.046,164.666 220.000 C 164.860 219.873,167.847 215.355,168.301 214.500 C 168.521 214.088,169.169 213.037,169.742 212.167 C 171.089 210.120,172.000 208.541,172.000 208.255 C 172.000 208.130,172.059 208.003,172.132 207.972 C 172.204 207.942,172.742 207.092,173.326 206.083 C 173.911 205.075,174.558 204.025,174.765 203.750 C 174.971 203.475,175.502 202.560,175.945 201.716 C 176.795 200.096,178.745 196.862,179.533 195.767 C 179.790 195.409,180.000 195.045,180.000 194.956 C 180.000 194.740,181.419 192.467,182.883 190.339 L 184.083 188.595 185.583 188.308 C 187.514 187.940,191.760 187.069,194.000 186.582 C 194.963 186.373,196.650 186.009,197.750 185.774 C 199.480 185.405,203.145 184.605,205.000 184.192 C 206.372 183.886,153.560 183.686,143.458 183.958 M241.755 183.958 C 240.017 184.023,240.006 184.033,240.002 185.500 C 240.001 186.096,239.853 187.971,239.675 189.667 C 237.368 211.635,237.363 224.248,239.659 231.880 C 239.831 232.450,240.023 233.169,240.086 233.477 C 241.428 240.005,248.922 243.918,259.167 243.439 C 265.298 243.152,269.936 239.845,273.589 233.157 C 275.745 229.208,276.091 227.348,275.588 222.407 C 274.663 213.318,274.239 204.858,274.058 191.864 L 273.946 183.833 258.598 183.868 C 250.157 183.886,242.577 183.927,241.755 183.958 " stroke="none" fill="#c3c373" fill-rule="evenodd"></path><path id="path1" d="M83.529 138.350 C 83.212 138.856,83.403 138.923,83.731 138.422 C 83.883 138.190,83.949 138.000,83.877 138.000 C 83.806 138.000,83.649 138.157,83.529 138.350 M84.167 145.083 C 84.167 145.221,84.242 145.333,84.333 145.333 C 84.425 145.333,84.500 145.221,84.500 145.083 C 84.500 144.946,84.425 144.833,84.333 144.833 C 84.242 144.833,84.167 144.946,84.167 145.083 M75.539 149.833 C 75.424 150.017,75.388 150.167,75.458 150.167 C 75.529 150.167,75.680 150.017,75.795 149.833 C 75.909 149.650,75.945 149.500,75.875 149.500 C 75.804 149.500,75.653 149.650,75.539 149.833 M227.669 154.875 C 227.671 155.178,227.703 155.202,227.833 155.000 C 228.042 154.677,228.042 154.500,227.833 154.500 C 227.742 154.500,227.668 154.669,227.669 154.875 M239.943 160.368 C 239.807 160.886,239.911 160.912,240.136 160.417 C 240.241 160.188,240.262 160.000,240.183 160.000 C 240.104 160.000,239.996 160.165,239.943 160.368 M335.514 162.727 L 334.778 163.583 335.589 162.798 C 336.035 162.365,336.367 161.980,336.325 161.941 C 336.284 161.903,335.919 162.256,335.514 162.727 M236.109 164.305 C 235.957 164.472,235.834 164.679,235.836 164.763 C 235.837 164.848,235.910 164.804,235.996 164.667 C 236.083 164.529,236.245 164.417,236.355 164.417 C 236.465 164.417,236.587 164.323,236.625 164.208 C 236.728 163.899,236.425 163.956,236.109 164.305 M333.005 164.592 C 332.686 164.816,332.490 165.000,332.568 165.000 C 332.736 165.000,333.833 164.338,333.833 164.236 C 333.833 164.084,333.556 164.202,333.005 164.592 " stroke="none" fill="#404224" fill-rule="evenodd"></path><path id="path2" d="M81.500 141.000 C 81.304 141.275,81.181 141.500,81.227 141.500 C 81.273 141.500,81.471 141.275,81.667 141.000 C 81.862 140.725,81.985 140.500,81.939 140.500 C 81.894 140.500,81.696 140.725,81.500 141.000 M226.381 159.917 C 226.382 160.375,226.415 160.543,226.453 160.289 C 226.491 160.036,226.490 159.661,226.451 159.456 C 226.411 159.251,226.380 159.458,226.381 159.917 " stroke="none" fill="#80824b" fill-rule="evenodd"></path><path id="path3" d="M84.000 147.677 C 84.000 147.865,84.075 147.973,84.167 147.917 C 84.258 147.860,84.333 147.706,84.333 147.573 C 84.333 147.441,84.258 147.333,84.167 147.333 C 84.075 147.333,84.000 147.488,84.000 147.677 M231.684 148.756 C 231.206 149.301,231.082 149.500,231.222 149.500 C 231.253 149.500,231.519 149.200,231.813 148.833 C 232.476 148.009,232.387 147.955,231.684 148.756 M328.906 148.875 L 328.417 149.417 328.958 148.927 C 329.463 148.471,329.577 148.333,329.448 148.333 C 329.419 148.333,329.175 148.577,328.906 148.875 M238.158 162.792 L 237.583 163.417 238.208 162.842 C 238.552 162.526,238.833 162.245,238.833 162.217 C 238.833 162.090,238.692 162.210,238.158 162.792 M227.864 166.083 C 228.064 166.313,228.252 166.500,228.284 166.500 C 228.315 166.500,228.218 166.313,228.068 166.083 C 227.918 165.854,227.729 165.667,227.649 165.667 C 227.568 165.667,227.665 165.854,227.864 166.083 " stroke="none" fill="#6c6c3c" fill-rule="evenodd"></path><path id="path4" d="M84.755 140.882 C 84.684 141.047,84.672 141.228,84.729 141.285 C 84.899 141.454,85.035 141.216,84.957 140.888 C 84.888 140.597,84.879 140.597,84.755 140.882 M84.622 142.434 C 84.555 142.501,84.500 142.671,84.500 142.811 C 84.500 142.999,84.549 143.017,84.685 142.881 C 84.787 142.779,84.842 142.610,84.807 142.504 C 84.772 142.399,84.688 142.367,84.622 142.434 M84.422 144.216 C 84.351 144.380,84.339 144.561,84.396 144.618 C 84.565 144.788,84.702 144.550,84.624 144.221 C 84.555 143.930,84.546 143.930,84.422 144.216 M237.583 145.119 C 237.400 145.163,237.181 145.264,237.098 145.344 C 236.970 145.465,237.842 145.295,238.417 145.087 C 238.661 144.998,237.974 145.025,237.583 145.119 M333.958 145.431 C 333.248 145.660,332.667 145.922,332.667 146.013 C 332.667 146.111,332.818 146.096,333.042 145.976 C 333.248 145.864,333.942 145.605,334.583 145.400 C 335.225 145.195,335.637 145.025,335.500 145.021 C 335.362 145.018,334.669 145.203,333.958 145.431 M336.125 145.118 C 336.331 145.157,336.669 145.157,336.875 145.118 C 337.081 145.078,336.912 145.045,336.500 145.045 C 336.087 145.045,335.919 145.078,336.125 145.118 M337.667 145.417 C 337.896 145.548,338.158 145.655,338.250 145.655 C 338.342 145.655,338.229 145.548,338.000 145.417 C 337.771 145.286,337.508 145.178,337.417 145.178 C 337.325 145.178,337.438 145.286,337.667 145.417 M77.369 146.792 C 76.584 147.959,76.461 148.167,76.549 148.167 C 76.587 148.167,76.967 147.642,77.394 147.000 C 77.820 146.358,78.134 145.833,78.091 145.833 C 78.048 145.833,77.723 146.265,77.369 146.792 M241.693 146.375 C 241.999 146.673,242.282 146.897,242.321 146.873 C 242.429 146.808,241.460 145.833,241.287 145.833 C 241.204 145.833,241.386 146.077,241.693 146.375 M84.255 146.216 C 84.184 146.380,84.172 146.561,84.229 146.618 C 84.399 146.788,84.535 146.550,84.457 146.221 C 84.388 145.930,84.379 145.930,84.255 146.216 M328.910 148.708 L 328.083 149.583 328.958 148.756 C 329.440 148.301,329.833 147.908,329.833 147.881 C 329.833 147.757,329.679 147.895,328.910 148.708 M84.003 148.635 C 84.001 149.072,84.065 149.313,84.167 149.250 C 84.378 149.119,84.378 148.494,84.167 148.167 C 84.049 147.984,84.004 148.110,84.003 148.635 M80.083 150.333 C 79.873 150.424,79.842 150.477,80.000 150.477 C 80.137 150.477,80.400 150.412,80.583 150.333 C 80.793 150.243,80.824 150.190,80.667 150.190 C 80.529 150.190,80.267 150.255,80.083 150.333 M78.667 150.500 C 78.090 150.621,78.089 150.623,78.583 150.642 C 78.858 150.653,79.196 150.589,79.333 150.500 C 79.611 150.321,79.519 150.321,78.667 150.500 M242.771 150.590 C 242.713 150.739,242.673 150.986,242.681 151.139 C 242.689 151.292,242.761 151.195,242.842 150.925 C 242.999 150.399,242.944 150.139,242.771 150.590 M76.750 150.838 C 76.527 150.936,76.666 150.952,77.167 150.886 C 77.579 150.832,77.948 150.760,77.986 150.727 C 78.131 150.601,77.068 150.697,76.750 150.838 M229.564 151.042 C 228.990 152.015,228.952 152.098,229.245 151.750 C 229.583 151.347,229.875 150.833,229.766 150.833 C 229.722 150.833,229.631 150.927,229.564 151.042 M325.444 153.480 C 325.200 153.928,325.001 154.360,325.003 154.439 C 325.005 154.518,325.230 154.177,325.503 153.681 C 325.777 153.185,325.975 152.753,325.944 152.722 C 325.913 152.691,325.688 153.032,325.444 153.480 M338.633 156.750 C 338.493 157.254,338.430 157.667,338.494 157.667 C 338.617 157.667,339.046 155.990,338.947 155.891 C 338.915 155.859,338.773 156.245,338.633 156.750 M226.444 158.444 C 226.383 158.506,226.338 158.712,226.344 158.903 C 226.354 159.222,226.367 159.218,226.514 158.851 C 226.677 158.443,226.644 158.245,226.444 158.444 M323.778 159.944 C 323.607 160.115,323.646 160.801,323.833 160.917 C 323.933 160.978,324.000 160.780,324.000 160.427 C 324.000 159.817,323.970 159.752,323.778 159.944 M226.356 161.167 C 226.346 161.487,226.411 161.862,226.500 162.000 C 226.699 162.308,226.699 161.865,226.500 161.083 L 226.373 160.583 226.356 161.167 M227.500 165.885 C 227.500 165.914,227.744 166.158,228.042 166.427 L 228.583 166.917 228.094 166.375 C 227.638 165.870,227.500 165.757,227.500 165.885 M325.370 166.375 C 325.628 166.627,325.931 166.831,326.044 166.828 C 326.157 166.825,326.100 166.740,325.917 166.639 C 325.733 166.537,325.430 166.333,325.242 166.186 C 325.054 166.038,325.112 166.123,325.370 166.375 M328.667 166.841 C 328.484 166.964,328.552 166.980,328.917 166.898 C 329.529 166.761,329.663 166.666,329.236 166.669 C 329.060 166.671,328.804 166.748,328.667 166.841 M228.875 166.948 C 229.035 166.990,229.298 166.990,229.458 166.948 C 229.619 166.906,229.487 166.872,229.167 166.872 C 228.846 166.872,228.715 166.906,228.875 166.948 " stroke="none" fill="#9da25e" fill-rule="evenodd"></path></g></svg>